<?xml version="1.0" encoding="utf-8"?>
<!-- Generator: Adobe Illustrator 24.2.0, SVG Export Plug-In . SVG Version: 6.00 Build 0)  -->
<svg version="1.1" id="Layer_1" xmlns="http://www.w3.org/2000/svg" xmlns:xlink="http://www.w3.org/1999/xlink" x="0px" y="0px"
	 viewBox="0 0 595.28 841.89" style="enable-background:new 0 0 595.28 841.89;" xml:space="preserve">
<style type="text/css">
	.st0{fill:#2B3990;}
	.st1{fill:#ED1C24;}
	.st2{fill:#FFF200;}
	.st3{fill:#2E3192;}
	.st4{fill:#006838;}
</style>
<path class="st0" d="M178.88,285.26h25.27c0.14,0.58,0.26,1.27,0.36,2.09c0.1,0.82,0.14,1.63,0.14,2.45c0,3.31-0.5,6.43-1.51,9.36
	c-1.01,2.93-2.59,5.54-4.75,7.85c-2.3,2.45-5.06,4.34-8.28,5.69c-3.22,1.34-6.89,2.02-11.02,2.02c-3.74,0-7.27-0.67-10.58-2.02
	s-6.19-3.22-8.64-5.62c-2.45-2.4-4.39-5.24-5.83-8.53c-1.44-3.29-2.16-6.88-2.16-10.76c0-3.89,0.72-7.48,2.16-10.76
	c1.44-3.29,3.38-6.13,5.83-8.53c2.45-2.4,5.33-4.27,8.64-5.62c3.31-1.34,6.84-2.02,10.58-2.02c4.18,0,7.91,0.72,11.2,2.16
	c3.29,1.44,6.11,3.43,8.46,5.98l-6.7,6.55c-1.68-1.77-3.55-3.13-5.62-4.07c-2.06-0.94-4.54-1.4-7.42-1.4c-2.35,0-4.58,0.42-6.7,1.26
	c-2.11,0.84-3.96,2.03-5.54,3.56c-1.58,1.54-2.84,3.4-3.78,5.58c-0.94,2.18-1.4,4.62-1.4,7.31c0,2.69,0.47,5.12,1.4,7.31
	c0.94,2.18,2.21,4.04,3.82,5.58c1.61,1.54,3.47,2.73,5.58,3.56c2.11,0.84,4.37,1.26,6.77,1.26c2.74,0,5.05-0.4,6.95-1.19
	c1.9-0.79,3.52-1.81,4.86-3.06c0.96-0.86,1.79-1.96,2.48-3.28c0.7-1.32,1.24-2.8,1.62-4.43h-16.2V285.26z"/>
<path class="st1" d="M227.92,277.13c2.74,0,5.24,0.47,7.52,1.4c2.28,0.94,4.25,2.23,5.9,3.89c1.66,1.66,2.95,3.64,3.89,5.94
	c0.94,2.3,1.4,4.82,1.4,7.56c0,2.74-0.47,5.26-1.4,7.56c-0.94,2.3-2.23,4.28-3.89,5.94c-1.66,1.66-3.63,2.95-5.9,3.89
	c-2.28,0.94-4.79,1.4-7.52,1.4c-2.74,0-5.24-0.47-7.52-1.4c-2.28-0.94-4.25-2.23-5.9-3.89c-1.66-1.66-2.95-3.64-3.89-5.94
	c-0.94-2.3-1.4-4.82-1.4-7.56c0-2.74,0.47-5.26,1.4-7.56c0.94-2.3,2.23-4.28,3.89-5.94c1.66-1.66,3.62-2.95,5.9-3.89
	C222.67,277.59,225.18,277.13,227.92,277.13z M227.92,306c1.2,0,2.36-0.23,3.49-0.68c1.13-0.46,2.12-1.12,2.99-1.98
	c0.86-0.86,1.55-1.92,2.05-3.17c0.5-1.25,0.76-2.66,0.76-4.25s-0.25-3-0.76-4.25c-0.5-1.25-1.19-2.3-2.05-3.17
	c-0.86-0.86-1.86-1.52-2.99-1.98c-1.13-0.46-2.29-0.68-3.49-0.68c-1.25,0-2.42,0.23-3.53,0.68c-1.1,0.46-2.09,1.12-2.95,1.98
	c-0.86,0.86-1.55,1.92-2.05,3.17c-0.5,1.25-0.76,2.66-0.76,4.25s0.25,3,0.76,4.25c0.5,1.25,1.19,2.3,2.05,3.17
	c0.86,0.86,1.85,1.52,2.95,1.98C225.49,305.77,226.67,306,227.92,306z"/>
<path class="st2" d="M269.39,277.13c2.74,0,5.24,0.47,7.52,1.4c2.28,0.94,4.25,2.23,5.9,3.89c1.66,1.66,2.95,3.64,3.89,5.94
	c0.94,2.3,1.4,4.82,1.4,7.56c0,2.74-0.47,5.26-1.4,7.56c-0.94,2.3-2.23,4.28-3.89,5.94c-1.66,1.66-3.63,2.95-5.9,3.89
	c-2.28,0.94-4.79,1.4-7.52,1.4c-2.74,0-5.24-0.47-7.52-1.4c-2.28-0.94-4.25-2.23-5.9-3.89c-1.66-1.66-2.95-3.64-3.89-5.94
	c-0.94-2.3-1.4-4.82-1.4-7.56c0-2.74,0.47-5.26,1.4-7.56c0.94-2.3,2.23-4.28,3.89-5.94c1.66-1.66,3.62-2.95,5.9-3.89
	C264.14,277.59,266.65,277.13,269.39,277.13z M269.39,306c1.2,0,2.36-0.23,3.49-0.68c1.13-0.46,2.12-1.12,2.99-1.98
	c0.86-0.86,1.55-1.92,2.05-3.17c0.5-1.25,0.76-2.66,0.76-4.25s-0.25-3-0.76-4.25c-0.5-1.25-1.19-2.3-2.05-3.17
	c-0.86-0.86-1.86-1.52-2.99-1.98c-1.13-0.46-2.29-0.68-3.49-0.68c-1.25,0-2.42,0.23-3.53,0.68c-1.1,0.46-2.09,1.12-2.95,1.98
	c-0.86,0.86-1.55,1.92-2.05,3.17c-0.5,1.25-0.76,2.66-0.76,4.25s0.25,3,0.76,4.25c0.5,1.25,1.19,2.3,2.05,3.17
	c0.86,0.86,1.85,1.52,2.95,1.98C266.96,305.77,268.14,306,269.39,306z"/>
<path class="st3" d="M310.43,330.26c-2.5,0-4.72-0.32-6.66-0.97c-1.94-0.65-3.64-1.49-5.08-2.52c-1.44-1.03-2.64-2.17-3.6-3.42
	c-0.96-1.25-1.66-2.5-2.09-3.74l9-3.6c0.67,1.87,1.78,3.32,3.31,4.36c1.54,1.03,3.24,1.55,5.11,1.55c2.98,0,5.33-0.97,7.06-2.9
	c1.73-1.93,2.59-4.59,2.59-7.98v-2.45h-0.58c-1.1,1.54-2.56,2.75-4.36,3.64c-1.8,0.89-3.92,1.33-6.37,1.33
	c-2.11,0-4.17-0.43-6.16-1.28c-1.99-0.85-3.76-2.08-5.29-3.67c-1.54-1.59-2.78-3.51-3.74-5.74c-0.96-2.23-1.44-4.73-1.44-7.49
	c0-2.76,0.48-5.26,1.44-7.52c0.96-2.26,2.21-4.18,3.74-5.78c1.54-1.59,3.3-2.82,5.29-3.67c1.99-0.85,4.04-1.28,6.16-1.28
	c2.45,0,4.57,0.44,6.37,1.33c1.8,0.89,3.25,2.1,4.36,3.64h0.58v-3.82h9v32.76c0,2.98-0.46,5.65-1.37,8.03
	c-0.91,2.38-2.18,4.39-3.82,6.05c-1.63,1.66-3.59,2.93-5.87,3.82C315.74,329.82,313.21,330.26,310.43,330.26z M310.79,305.06
	c1.15,0,2.29-0.21,3.42-0.64c1.13-0.42,2.12-1.05,2.99-1.87c0.86-0.82,1.56-1.84,2.09-3.04c0.53-1.2,0.79-2.58,0.79-4.14
	c0-1.55-0.26-2.94-0.79-4.17c-0.53-1.23-1.22-2.25-2.09-3.07c-0.86-0.82-1.86-1.45-2.99-1.87c-1.13-0.42-2.27-0.64-3.42-0.64
	s-2.28,0.21-3.38,0.64c-1.11,0.42-2.09,1.06-2.95,1.91s-1.56,1.87-2.09,3.08c-0.53,1.2-0.79,2.58-0.79,4.13
	c0,1.56,0.26,2.94,0.79,4.14c0.53,1.2,1.22,2.21,2.09,3.04s1.85,1.45,2.95,1.87C308.51,304.85,309.64,305.06,310.79,305.06z"/>
<path class="st4" d="M337.14,313.56v-51.55h9.43v51.55H337.14z"/>
<path class="st1" d="M387.68,305.06c-1.63,2.88-3.83,5.21-6.59,6.98c-2.76,1.78-6.13,2.66-10.12,2.66c-2.69,0-5.17-0.47-7.45-1.4
	c-2.28-0.94-4.26-2.24-5.94-3.92c-1.68-1.68-2.99-3.66-3.92-5.94c-0.94-2.28-1.4-4.79-1.4-7.52c0-2.54,0.46-4.96,1.37-7.24
	c0.91-2.28,2.18-4.27,3.82-5.98c1.63-1.7,3.56-3.06,5.8-4.07c2.23-1.01,4.69-1.51,7.38-1.51c2.83,0,5.35,0.47,7.56,1.4
	s4.06,2.23,5.54,3.89c1.49,1.66,2.62,3.61,3.38,5.87c0.77,2.26,1.15,4.7,1.15,7.34c0,0.34,0,0.62,0,0.86
	c-0.05,0.29-0.07,0.55-0.07,0.79c-0.05,0.24-0.07,0.5-0.07,0.79h-26.57c0.19,1.44,0.59,2.68,1.19,3.71c0.6,1.03,1.34,1.9,2.23,2.59
	c0.89,0.7,1.86,1.2,2.92,1.51c1.06,0.31,2.14,0.47,3.24,0.47c2.16,0,3.95-0.49,5.36-1.48c1.42-0.98,2.53-2.22,3.35-3.71
	L387.68,305.06z M379.12,291.38c-0.05-0.62-0.25-1.32-0.61-2.09c-0.36-0.77-0.89-1.49-1.58-2.16c-0.7-0.67-1.56-1.22-2.59-1.66
	c-1.03-0.43-2.27-0.65-3.71-0.65c-2.02,0-3.79,0.58-5.33,1.73s-2.62,2.76-3.24,4.82H379.12z"/>
</svg>
